<svg width="512" height="512" viewBox="0 0 512 512" xmlns="http://www.w3.org/2000/svg" role="img" aria-label="Petly logo">
  <defs>
    <linearGradient id="badge" x1="0" y1="0" x2="0" y2="1" gradientTransform="rotate(60 .5 .5)">
      <stop offset="0" stop-color="#FF8FB3"></stop>
      <stop offset="0.38" stop-color="#E5379B"></stop>
      <stop offset="0.7" stop-color="#B57EDC"></stop>
      <stop offset="1" stop-color="#1E2A5A"></stop>
    </linearGradient>
    <radialGradient id="topglow" cx="0.4" cy="0.28" r="0.7">
      <stop offset="0" stop-color="#ffffff" stop-opacity="0.45"></stop>
      <stop offset="1" stop-color="#ffffff" stop-opacity="0"></stop>
    </radialGradient>
  </defs>

  <g transform="rotate(-6 256 256)">
    
    <rect x="64" y="64" width="384" height="384" rx="120" fill="url(#badge)"></rect>
    <rect x="64" y="64" width="384" height="384" rx="120" fill="url(#topglow)"></rect>
    
    <rect x="64" y="64" width="384" height="384" rx="120" fill="none" stroke="#13183a" stroke-opacity="0.18" stroke-width="10"></rect>

    
    <g transform="translate(96 96) scale(8)">
      
      <ellipse cx="14.5" cy="16" rx="7" ry="7.6" fill="#fff"></ellipse>
      <ellipse cx="26" cy="15" rx="8" ry="8.5" fill="#fff"></ellipse>
      <circle cx="16.2" cy="17.4" r="3.5" fill="#2A1B14"></circle>
      <circle cx="24.2" cy="16.3" r="4" fill="#2A1B14"></circle>
      <circle cx="15" cy="16" r="1.3" fill="#fff"></circle>
      <circle cx="23" cy="15" r="1.4" fill="#fff"></circle>
      
      <path d="M15.5 25.5 Q20 30.5 24.5 25.5" stroke="#2A1B14" stroke-width="1.8" fill="none" stroke-linecap="round"></path>
      <path d="M17.7 27 C17.7 33.4 22.3 33.4 22.3 27 Z" fill="#F4A6AE" stroke="#E07F8A" stroke-width="0.7"></path>
      <path d="M20 28 L20 31.5" stroke="#E07F8A" stroke-width="0.7" stroke-linecap="round"></path>
    </g>
  </g>
</svg>